<svg width="383" height="383" viewBox="0 0 383 383" fill="none" xmlns="http://www.w3.org/2000/svg">
<circle cx="191.5" cy="191.5" r="191.5" fill="#CAD9F5"/>
<path d="M58 138L322 167.5" stroke="black"/>
<path d="M321.804 166.745C321.969 167.298 321.536 167.849 320.959 167.818L318.656 167.696L59.205 138.793C58.4388 138.707 58.187 137.718 58.8191 137.277L162.654 64.7783C165.473 62.8101 169.21 62.7692 172.071 64.6752L320.937 163.841L321.804 166.745Z" fill="#FFEFCF"/>
<path d="M58.6172 137.927L190.235 152.656L321.853 167.385V252.831L58.6172 211.048V137.927Z" fill="#F4DCAC"/>
<path d="M112.21 275.902L89.2105 272.402C76.8948 271.432 61.1705 243.552 58.7105 233.402C56.6608 224.944 58.0268 214.613 58.5395 211.402C58.676 210.673 58.6119 210.625 59.6251 210.548L319.434 252.038C321.428 252.524 321.868 253.057 321.71 254.402V304.402C320.605 306.658 319.341 307.254 315.71 306.902L112.21 275.902Z" fill="#DFB98C"/>
<g filter="url(#filter0_b_128_45)">
<circle cx="107.904" cy="237.834" r="5.28649" fill="url(#paint0_linear_128_45)"/>
</g>
<g filter="url(#filter1_b_128_45)">
<circle cx="141.385" cy="237.834" r="5.28649" fill="url(#paint1_linear_128_45)"/>
</g>
<g filter="url(#filter2_b_128_45)">
<circle cx="187.201" cy="263.386" r="5.28649" fill="url(#paint2_linear_128_45)"/>
</g>
<g filter="url(#filter3_b_128_45)">
<circle cx="220.682" cy="255.456" r="5.28649" fill="url(#paint3_linear_128_45)"/>
</g>
<g filter="url(#filter4_b_128_45)">
<circle cx="260.33" cy="278.364" r="5.28649" fill="url(#paint4_linear_128_45)"/>
</g>
<defs>
<filter id="filter0_b_128_45" x="99.0929" y="229.024" width="17.6216" height="17.6216" filterUnits="userSpaceOnUse" color-interpolation-filters="sRGB">
<feFlood flood-opacity="0" result="BackgroundImageFix"/>
<feGaussianBlur in="BackgroundImage" stdDeviation="1.76216"/>
<feComposite in2="SourceAlpha" operator="in" result="effect1_backgroundBlur_128_45"/>
<feBlend mode="normal" in="SourceGraphic" in2="effect1_backgroundBlur_128_45" result="shape"/>
</filter>
<filter id="filter1_b_128_45" x="132.574" y="229.024" width="17.6216" height="17.6216" filterUnits="userSpaceOnUse" color-interpolation-filters="sRGB">
<feFlood flood-opacity="0" result="BackgroundImageFix"/>
<feGaussianBlur in="BackgroundImage" stdDeviation="1.76216"/>
<feComposite in2="SourceAlpha" operator="in" result="effect1_backgroundBlur_128_45"/>
<feBlend mode="normal" in="SourceGraphic" in2="effect1_backgroundBlur_128_45" result="shape"/>
</filter>
<filter id="filter2_b_128_45" x="178.39" y="254.575" width="17.6216" height="17.6216" filterUnits="userSpaceOnUse" color-interpolation-filters="sRGB">
<feFlood flood-opacity="0" result="BackgroundImageFix"/>
<feGaussianBlur in="BackgroundImage" stdDeviation="1.76216"/>
<feComposite in2="SourceAlpha" operator="in" result="effect1_backgroundBlur_128_45"/>
<feBlend mode="normal" in="SourceGraphic" in2="effect1_backgroundBlur_128_45" result="shape"/>
</filter>
<filter id="filter3_b_128_45" x="211.871" y="246.645" width="17.6216" height="17.6216" filterUnits="userSpaceOnUse" color-interpolation-filters="sRGB">
<feFlood flood-opacity="0" result="BackgroundImageFix"/>
<feGaussianBlur in="BackgroundImage" stdDeviation="1.76216"/>
<feComposite in2="SourceAlpha" operator="in" result="effect1_backgroundBlur_128_45"/>
<feBlend mode="normal" in="SourceGraphic" in2="effect1_backgroundBlur_128_45" result="shape"/>
</filter>
<filter id="filter4_b_128_45" x="251.52" y="269.553" width="17.6216" height="17.6216" filterUnits="userSpaceOnUse" color-interpolation-filters="sRGB">
<feFlood flood-opacity="0" result="BackgroundImageFix"/>
<feGaussianBlur in="BackgroundImage" stdDeviation="1.76216"/>
<feComposite in2="SourceAlpha" operator="in" result="effect1_backgroundBlur_128_45"/>
<feBlend mode="normal" in="SourceGraphic" in2="effect1_backgroundBlur_128_45" result="shape"/>
</filter>
<linearGradient id="paint0_linear_128_45" x1="109.225" y1="237.834" x2="104.6" y2="241.138" gradientUnits="userSpaceOnUse">
<stop stop-color="#F0C6B7"/>
<stop offset="1" stop-color="#C4A69C" stop-opacity="0.5"/>
</linearGradient>
<linearGradient id="paint1_linear_128_45" x1="142.706" y1="237.834" x2="138.081" y2="241.138" gradientUnits="userSpaceOnUse">
<stop stop-color="#F0C6B7"/>
<stop offset="1" stop-color="#C4A69C" stop-opacity="0.5"/>
</linearGradient>
<linearGradient id="paint2_linear_128_45" x1="188.523" y1="263.386" x2="183.897" y2="266.69" gradientUnits="userSpaceOnUse">
<stop stop-color="#F0C6B7"/>
<stop offset="1" stop-color="#C4A69C" stop-opacity="0.5"/>
</linearGradient>
<linearGradient id="paint3_linear_128_45" x1="222.003" y1="255.456" x2="217.378" y2="258.76" gradientUnits="userSpaceOnUse">
<stop stop-color="#F0C6B7"/>
<stop offset="1" stop-color="#C4A69C" stop-opacity="0.5"/>
</linearGradient>
<linearGradient id="paint4_linear_128_45" x1="261.652" y1="278.364" x2="257.026" y2="281.668" gradientUnits="userSpaceOnUse">
<stop stop-color="#F0C6B7"/>
<stop offset="1" stop-color="#C4A69C" stop-opacity="0.5"/>
</linearGradient>
</defs>
</svg>
